<svg aria-hidden="true" style="position: absolute; width: 0; height: 0; overflow: hidden;" version="1.1" xmlns="http://www.w3.org/2000/svg" xmlns:xlink="http://www.w3.org/1999/xlink">
<defs>
<symbol id="icon-menu" viewBox="0 0 43 32">
<path d="M42 16c0-1.105-0.895-2-2-2v0h-37.333c-1.105 0-2 0.895-2 2s0.895 2 2 2v0h37.333c1.105 0 2-0.895 2-2v0zM42 2.667c0-1.105-0.895-2-2-2v0h-37.333c-1.105 0-2 0.895-2 2s0.895 2 2 2v0h37.333c1.105 0 2-0.895 2-2v0zM42 29.333c0-1.105-0.895-2-2-2v0h-37.333c-1.105 0-2 0.895-2 2s0.895 2 2 2v0h37.333c1.105 0 2-0.895 2-2v0z"></path>
</symbol>
<symbol id="icon-in" viewBox="0 0 33 32">
<path d="M31.022 0.005h-28.643c-1.315 0-2.38 1.037-2.38 2.308v27.4c0 1.272 1.065 2.309 2.38 2.309h28.643c1.313 0 2.387-1.037 2.387-2.309v-27.398c0-1.272-1.072-2.309-2.387-2.309zM10.096 27.447h-4.951v-15.279h4.959v15.279h-0.009zM7.622 10.080c-1.589 0-2.872-1.235-2.872-2.75s1.283-2.75 2.872-2.75c1.582 0 2.872 1.235 2.872 2.75 0 1.522-1.283 2.75-2.872 2.75zM28.658 27.447h-4.952v-7.434c0-1.77-0.035-4.051-2.573-4.051-2.578 0-2.975 1.931-2.975 3.924v7.56h-4.951v-15.279h4.75v2.086h0.067c0.664-1.199 2.283-2.464 4.691-2.464 5.010 0 5.944 3.163 5.944 7.283v8.374z"></path>
</symbol>
<symbol id="icon-instagram" viewBox="0 0 32 32">
<path d="M32.199 9.404c0-1.799-0.398-2.801-0.799-4-0.432-1.088-1.042-2.019-1.803-2.801l0.002 0.002c-0.799-1-1.799-1.402-2.799-1.801-1-0.402-2.201-0.6-4-0.799h-13.399c-1.799 0-2.801 0.398-4 0.799-1.088 0.431-2.019 1.042-2.801 1.803l0.002-0.002c-0.801 0.998-1.402 1.799-1.801 2.998-0.402 1-0.6 2.201-0.799 3.801v13.2c0 1.799 0.398 2.799 0.799 4 0.402 0.998 1 2 1.801 2.797 0.998 1.002 1.799 1.402 2.799 1.799 1 0.403 2.201 0.602 4 0.803h13.2c1.799 0 2.799-0.4 4-0.801 1.087-0.43 2.018-1.040 2.799-1.801l-0.002 0.002c1.002-1 1.402-1.799 1.799-2.799 0.403-1 0.602-2.201 0.803-4 0.199-1.799 0-2.201 0-6.601s0.199-4.8 0.199-6.599zM15.999 24.403c-4.599 0-8.199-3.799-8.199-8.201 0-4.599 3.799-8.197 8.201-8.197 4.599 0 8.197 3.798 8.197 8.199 0.201 4.4-3.599 8.199-8.199 8.199zM24.598 9.402c-1.102-0.004-1.994-0.896-1.998-1.998v-0c0-1 0.799-2 1.998-2 1.002 0 2.002 0.799 2.002 2 0 1.199-0.801 2-2.002 2z"></path>
<path d="M21.399 16.005c0 0.007 0 0.015 0 0.023 0 2.971-2.408 5.379-5.379 5.379-0.008 0-0.016-0-0.024-0h0.001c-0.006 0-0.012 0-0.019 0-2.971 0-5.379-2.408-5.379-5.379 0-0.008 0-0.016 0-0.024v0.001c0-3 2.601-5.199 5.398-5.199 3 0 5.402 2.4 5.402 5.199z"></path>
</symbol>
<symbol id="icon-youtube" viewBox="0 0 46 32">
<path d="M18.258 21.911v-12.825c4.553 2.142 8.080 4.21 12.251 6.443-3.438 1.906-7.698 4.046-12.251 6.382zM43.637 2.706c-0.786-1.038-2.123-1.842-3.55-2.107-4.19-0.798-30.325-0.8-34.512 0-1.143 0.213-2.16 0.731-3.035 1.536-3.682 3.419-2.528 21.755-1.639 24.722 0.373 1.287 0.855 2.215 1.463 2.821 0.782 0.807 1.856 1.36 3.086 1.609 3.451 0.713 21.221 1.113 34.565 0.105 1.248-0.219 2.335-0.797 3.178-1.624l-0.001 0.001c3.406-3.406 3.173-22.773 0.446-27.065z"></path>
</symbol>
<symbol id="icon-twitter" viewBox="0 0 36 32">
<path d="M32.406 7.975c0.021 0.35 0.021 0.701 0.021 1.049 0 10.674-7.447 22.976-21.058 22.976-4.263-0.002-8.208-1.36-11.428-3.665l0.059 0.040c0.595 0.077 1.167 0.104 1.787 0.104 3.461 0 6.647-1.277 9.19-3.453-3.254-0.075-5.982-2.4-6.921-5.6 0.46 0.075 0.916 0.124 1.399 0.124 0.663 0 1.327-0.097 1.948-0.274-3.395-0.75-5.938-4-5.938-7.924v-0.104c0.954 0.595 2.1 0.97 3.33 1.027l0.015 0.001c-1.992-1.451-3.298-3.928-3.298-6.726 0-1.501 0.367-2.875 1.009-4.075 3.644 4.9 9.12 8.1 15.261 8.45-0.112-0.555-0.179-1.194-0.182-1.848v-0.003c0-4.448 3.3-8.075 7.402-8.075 2.133 0 4.056 0.974 5.41 2.549 1.779-0.385 3.352-1.060 4.749-1.981l-0.052 0.032c-0.543 1.864-1.697 3.406-3.225 4.432l-0.029 0.018c1.585-0.203 3.024-0.643 4.345-1.288l-0.082 0.036c-1.024 1.621-2.256 3.001-3.68 4.152l-0.032 0.025z"></path>
</symbol>
<symbol id="icon-facebook" viewBox="0 0 17 32">
<path d="M16.317 18.004l0.906-5.793h-5.661v-3.758c0-1.585 0.79-3.13 3.325-3.13h2.575v-4.932s-2.336-0.391-4.568-0.391c-4.662 0-7.711 2.774-7.711 7.797v4.414h-5.18v5.793h5.182v14.004h6.377v-14.004h4.755z"></path>
</symbol>
</defs>
</svg>
